<?xml version="1.0" encoding="UTF-8"?>
<svg version="1.1" xmlns="http://www.w3.org/2000/svg" width="512" height="512">
<path d="M0 0 C6.10289106 8.71841581 5.14845009 23.25392735 6.06689453 33.64135742 C6.24409856 35.6035849 6.42174317 37.56577263 6.59979248 39.52792358 C7.07932929 44.8262956 7.55273858 50.12519896 8.02501154 55.42422271 C8.52056513 60.97253548 9.02180517 66.52033449 9.52243042 72.06819153 C10.46843102 82.56121931 11.40935057 93.05469619 12.34842479 103.54834586 C13.4182588 115.50036207 14.49378769 127.45186367 15.5697844 139.40332639 C17.78200627 163.97665205 19.98711093 188.55061217 22.1875 213.125 C23.00238212 207.45336486 23.81596759 201.78154562 24.62845325 196.10956669 C24.90388231 194.18800543 25.17963976 192.26649121 25.45575809 190.34502888 C27.18484151 178.31074536 28.85972318 166.27252441 30.41796875 154.21484375 C30.59402685 152.85678531 30.77013245 151.49873303 30.9462862 150.14068699 C31.59432261 145.13838815 32.23908856 140.13572711 32.87280273 135.1315918 C33.35898157 131.30409021 33.85632526 127.47817315 34.35546875 123.65234375 C34.4961528 122.51812485 34.63683685 121.38390594 34.78178406 120.21531677 C36.89373704 104.21487292 36.89373704 104.21487292 42 99.5625 C45.53847039 97.96671923 47.36428499 97.4877975 51.1875 98.125 C55.33803081 100.07819097 56.87111412 101.4102191 58.73971558 105.6317749 C60.44282447 110.49865225 61.32021332 115.44141697 62.16455078 120.51660156 C62.33894684 121.52571594 62.5133429 122.53483032 62.69302368 123.57452393 C63.26365942 126.88700706 63.82323524 130.2012575 64.3828125 133.515625 C64.77896335 135.8264396 65.17585564 138.1371272 65.57345581 140.44769287 C66.61559167 146.51451045 67.64855509 152.58285302 68.67932129 158.65161133 C70.13598379 167.21747207 71.60530598 175.7811722 73.07296753 184.34515381 C73.85404183 188.90309615 74.63175458 193.46159234 75.4067688 198.02056885 C75.76092003 200.09737232 76.11507625 202.17417493 76.46923828 204.25097656 C76.62924316 205.19650391 76.78924805 206.14203125 76.95410156 207.11621094 C77.1768425 208.41972504 77.1768425 208.41972504 77.40408325 209.74957275 C77.53200319 210.5024268 77.65992313 211.25528084 77.79171944 212.03094864 C78.1803483 214.08716079 78.65868752 216.10074305 79.1875 218.125 C79.35401062 217.51191986 79.52052124 216.89883972 79.69207764 216.2671814 C81.43132597 209.87190207 83.18585754 203.48095689 84.94921875 197.09228516 C85.60482254 194.70924311 86.256556 192.3251327 86.90429688 189.93994141 C87.8374271 186.50653739 88.78452798 183.07724916 89.734375 179.6484375 C90.01996277 178.58571625 90.30555054 177.522995 90.59979248 176.42807007 C92.50363739 169.6243685 94.08116706 164.19588862 100.1875 160.125 C102.2734375 159.7890625 102.2734375 159.7890625 104.5625 159.75 C105.31273437 159.72164062 106.06296875 159.69328125 106.8359375 159.6640625 C110.36011766 160.35484864 111.67177618 161.50910953 114.1875 164.125 C116.26289129 167.61009104 117.92022114 171.26038165 119.625 174.9375 C120.10352417 175.96629272 120.58204834 176.99508545 121.07507324 178.05505371 C125.30718981 187.18142287 129.46454968 196.34014945 133.59765625 205.51171875 C134.24216664 206.94057952 134.88673831 208.36941265 135.53137207 209.79821777 C137.08411739 213.24016207 138.63604672 216.68247313 140.1875 220.125 C141.17642242 220.13086624 142.16534485 220.13673248 143.18423462 220.14277649 C152.51255992 220.2000367 161.84065285 220.27281561 171.16874123 220.36071491 C175.96420225 220.40540613 180.75957857 220.44466505 185.55517578 220.47143555 C190.18485197 220.49748092 194.81420196 220.53789215 199.44367599 220.58818626 C201.20822461 220.60484662 202.97282963 220.61636607 204.73744583 220.62261391 C207.21284273 220.63226412 209.68740667 220.66033367 212.16259766 220.69262695 C213.2523288 220.69047432 213.2523288 220.69047432 214.36407471 220.6882782 C219.01947787 220.77394274 222.24947904 221.63247759 226.1875 224.125 C229.00204595 228.34681892 228.99434081 232.16530209 228.1875 237.125 C225.75 240.1875 225.75 240.1875 223.1875 242.125 C222.8575 242.455 222.5275 242.785 222.1875 243.125 C219.32273494 243.23622626 216.48185647 243.28239999 213.61621094 243.28613281 C212.267416 243.29358017 212.267416 243.29358017 210.89137268 243.30117798 C207.90153247 243.31584302 204.91174535 243.32260963 201.921875 243.328125 C199.85019936 243.33387392 197.77852374 243.33963169 195.70684814 243.34539795 C191.35550691 243.35592101 187.00418421 243.36175478 182.65283203 243.36523438 C177.07625674 243.37071464 171.49992618 243.39472725 165.92342758 243.42320633 C161.64090256 243.44183074 157.35843643 243.44703826 153.07587433 243.44857025 C151.02017126 243.45159895 148.96446928 243.45963475 146.90880585 243.47275543 C144.03113738 243.48980782 141.15406567 243.48793731 138.27636719 243.48144531 C137.42629593 243.4906601 136.57622467 243.49987488 135.70039368 243.5093689 C131.04858268 243.47649013 127.9386297 243.18401468 124.1875 240.125 C122.72314145 237.76039707 121.53196802 235.56765042 120.375 233.0625 C120.04242188 232.37091797 119.70984375 231.67933594 119.3671875 230.96679688 C115.462167 222.76917893 111.81050672 214.45020694 108.1875 206.125 C106.37019114 209.4299324 105.35745468 212.72850531 104.35571289 216.35888672 C104.00517349 217.62054657 103.65463409 218.88220642 103.29347229 220.18209839 C103.10891542 220.85363827 102.92435856 221.52517815 102.73420906 222.21706772 C102.15349265 224.32892056 101.56730243 226.43918442 100.979599 228.54910278 C99.31012343 234.54671019 97.65094686 240.54715443 95.99438477 246.54833984 C94.97927079 250.2242901 93.9581468 253.89852986 92.93353081 257.57184219 C92.54565164 258.96734447 92.16013531 260.36350584 91.77708626 261.76034164 C91.23988864 263.7192146 90.69443803 265.67581853 90.14868164 267.63232422 C89.68807091 269.29967117 89.68807091 269.29967117 89.21815491 271.0007019 C87.87887254 275.06056455 86.37996439 278.80003957 83.5 282 C80.05627273 283.67532678 76.89039418 283.73144702 73.1875 283.125 C69.90419232 281.76211757 67.88277419 280.67628673 66.38676453 277.33840942 C63.76308505 268.52380596 62.36152621 259.48282519 60.83203125 250.4296875 C60.52297768 248.62784678 60.21337294 246.82610052 59.90324402 245.02444458 C59.09388739 240.3138325 58.29195887 235.60198603 57.49163818 230.88983154 C56.67148601 226.06900659 55.84422176 221.24940279 55.01757812 216.4296875 C53.40063959 206.99596485 51.79155584 197.56092107 50.1875 188.125 C48.62615966 195.40629807 47.48813937 202.69093614 46.5234375 210.07299805 C46.2937326 211.79933472 46.2937326 211.79933472 46.05938721 213.56054688 C45.72951798 216.04239595 45.40111345 218.52444006 45.07403564 221.00665855 C44.55581682 224.93741149 44.03327425 228.86757606 43.50927734 232.79756165 C42.11520238 243.2595192 40.72825653 253.72241945 39.34457588 264.1857565 C38.43322767 271.07707982 37.51886537 277.96798835 36.5988636 284.85816222 C36.1632105 288.12246173 35.73027475 291.38708683 35.30096436 294.6522274 C34.82255716 298.29052593 34.33775472 301.92792038 33.8515625 305.56518555 C33.64264374 307.1729763 33.64264374 307.1729763 33.42950439 308.81324768 C31.62970817 322.14864066 31.62970817 322.14864066 28.5 326.4375 C25.38876896 328.70785779 23.00316601 329.54294925 19.1875 330.125 C15.25848343 329.01177864 12.95901259 328.18920406 10.53728962 324.84874344 C9.09968952 321.94780705 8.65020109 319.81755199 8.34086609 316.60760498 C8.23024999 315.52177753 8.11963388 314.43595009 8.00566578 313.31721878 C7.84563588 311.55676287 7.84563588 311.55676287 7.68237305 309.76074219 C7.49903805 307.90368212 7.49903805 307.90368212 7.31199932 306.00910568 C6.98911528 302.70866629 6.67722533 299.40759914 6.37177992 296.10552788 C6.0767549 292.93477934 5.77011194 289.7651516 5.46524048 286.59533691 C4.77973414 279.41017922 4.11735421 272.22297897 3.46016908 265.03518772 C3.13340482 261.46641187 2.80418468 257.89786244 2.4752655 254.32928467 C1.85745824 247.62258565 1.2417436 240.91569638 0.62685174 234.20872951 C-0.0752697 226.55148078 -0.7798321 218.89445721 -1.48456228 211.23744822 C-2.92985374 195.53354135 -4.37220095 179.82936559 -5.8125 164.125 C-6.74039947 166.90869841 -7.02772212 168.94871788 -7.20828056 171.84745407 C-7.27112264 172.82446109 -7.33396471 173.8014681 -7.39871109 174.80808139 C-7.49632789 176.42200963 -7.49632789 176.42200963 -7.59591675 178.06854248 C-7.66815842 179.20956146 -7.74040009 180.35058043 -7.8148309 181.52617574 C-8.01489713 184.69815248 -8.21135457 187.87032966 -8.4063623 191.04262066 C-8.61747266 194.4621434 -8.83327341 197.8813702 -9.0486145 201.30062866 C-9.42137537 207.22797559 -9.79147667 213.15548371 -10.16006088 219.08309174 C-10.74294003 228.45301932 -11.3342833 237.82240379 -11.92703247 247.19171143 C-12.12969854 250.39678328 -12.33231297 253.60185839 -12.53491402 256.80693436 C-12.58555109 257.60795279 -12.63618817 258.40897121 -12.6883597 259.23426293 C-13.26480571 268.35465643 -13.83958782 277.47515452 -14.41357422 286.59570312 C-14.49229217 287.84646231 -14.49229217 287.84646231 -14.57260038 289.12248936 C-15.42262906 302.63229922 -16.26602109 316.14251735 -17.10767446 329.65285119 C-17.97192996 343.52221465 -18.84593377 357.39094181 -19.72831166 371.25916409 C-20.27223952 379.81370932 -20.80816339 388.36868104 -21.33382203 396.92436865 C-21.69481754 402.78899286 -22.06505796 408.65298717 -22.44256531 414.51657149 C-22.66005953 417.89932499 -22.87199469 421.28218581 -23.07558441 424.66582108 C-23.2970437 428.33591144 -23.53411484 432.00467162 -23.77511597 435.67352295 C-23.83573239 436.74055222 -23.89634882 437.8075815 -23.9588021 438.90694499 C-24.35207724 444.61292061 -25.03505119 449.08462747 -27.8125 454.125 C-31.83847844 457.12107698 -34.98547693 457.40863417 -39.78515625 456.9375 C-42.9414871 455.67253503 -44.61077992 453.68581484 -46.8125 451.125 C-47.67543602 448.16405392 -47.67543602 448.16405392 -48.01327515 444.74998474 C-48.08159023 444.10610257 -48.14990531 443.46222039 -48.22029054 442.79882663 C-48.44536212 440.57590323 -48.63165653 438.35194333 -48.8125 436.125 C-48.88309773 435.30824146 -48.95369546 434.49148291 -49.02643251 433.64997411 C-49.61284872 426.81275494 -50.10929299 419.96987539 -50.60009766 413.12524414 C-50.76749284 410.83731817 -50.93528445 408.54942117 -51.10343933 406.2615509 C-51.55566537 400.09350186 -52.00239118 393.9250657 -52.44808245 387.75654149 C-52.91596484 381.29411843 -53.38897142 374.83207043 -53.86141968 368.36997986 C-54.65269338 357.53763383 -55.44084423 346.7050648 -56.2265625 335.87231445 C-57.03531611 324.72209438 -57.84598053 313.57201591 -58.65917969 302.42211914 C-58.70943317 301.73307702 -58.75968664 301.0440349 -58.81146295 300.33411271 C-59.06361994 296.87686544 -59.31581412 293.41962088 -59.56802678 289.96237767 C-61.65528293 261.35033698 -63.73597538 232.73782142 -65.8125 204.125 C-66.83521898 207.19315695 -67.15092446 209.78964129 -67.45079041 213.00588989 C-67.56707291 214.23388809 -67.68335541 215.46188629 -67.80316162 216.72709656 C-67.92864518 218.09035737 -68.05407046 219.45362354 -68.17944336 220.81689453 C-68.31395458 222.25102192 -68.4487944 223.68511852 -68.5839386 225.1191864 C-68.87454867 228.20957767 -69.16299962 231.30016029 -69.44984245 234.39090347 C-69.90410453 239.28353546 -70.36421722 244.17560624 -70.82533264 249.06759644 C-72.05311028 262.10287538 -73.27321193 275.13887074 -74.48964745 288.17521274 C-75.28837103 296.73466738 -76.09038125 305.29379998 -76.89853197 313.85237014 C-77.35686497 318.70911011 -77.80999477 323.56629813 -78.25917995 328.42389226 C-78.5408129 331.45657388 -78.82723666 334.48878933 -79.11495781 337.52089882 C-79.24674515 338.91985801 -79.37659627 340.31900127 -79.50429153 341.71833992 C-81.24096174 360.71858204 -81.24096174 360.71858204 -84.8125 366.1875 C-89.12175825 368.97056262 -92.82284808 369.12621305 -97.8125 368.125 C-102.07800259 365.28133161 -103.18579065 362.54314585 -104.32247734 357.66407013 C-105.38260168 352.17099755 -106.00107764 346.61235303 -106.67602539 341.06152344 C-106.85160377 339.64807862 -107.02762602 338.23468889 -107.20405579 336.8213501 C-107.58122469 333.79231776 -107.95529776 330.76292532 -108.32692146 327.7332077 C-108.91462617 322.9421375 -109.50939198 318.15195974 -110.10508728 313.36187744 C-111.0461001 305.78835291 -111.98250531 298.21426717 -112.91688293 290.63992143 C-114.59155529 277.06485524 -116.27180278 263.4904807 -117.95715898 249.91673684 C-118.54821664 245.15465882 -119.13650747 240.39224946 -119.72257054 235.62955427 C-120.08713436 232.67048062 -120.4536949 229.7116567 -120.8207531 226.75289154 C-120.9905324 225.38077459 -121.15945323 224.0085511 -121.32745361 222.63621521 C-121.55681319 220.76352422 -121.78949859 218.89124145 -122.02235413 217.01898193 C-122.15157289 215.97115414 -122.28079165 214.92332634 -122.41392612 213.84374619 C-122.75121254 211.54305309 -123.19422699 209.36369251 -123.8125 207.125 C-123.98123123 208.00339035 -124.14996246 208.8817807 -124.32380676 209.78678894 C-125.91718663 218.07233077 -127.5199357 226.35599321 -129.13318348 234.63769054 C-129.96220213 238.8952593 -130.78760602 243.15346232 -131.60473633 247.41333008 C-132.39373246 251.52580731 -133.19223962 255.63633371 -133.99732018 259.7456913 C-134.30250814 261.31227455 -134.60428761 262.87952586 -134.90256691 264.44743919 C-135.3215756 266.64676734 -135.75274147 268.84338828 -136.18676758 271.03979492 C-136.42881424 272.28999924 -136.6708609 273.54020355 -136.92024231 274.82829285 C-138.02565405 278.91256003 -139.62558699 281.8501675 -142.5 284.9375 C-145.84341305 286.65438778 -149.17331464 286.81624191 -152.8125 286.125 C-157.18690174 284.0275975 -158.66212864 282.18199268 -160.37792969 277.68115234 C-160.7908728 276.6079071 -161.20381592 275.53466187 -161.62927246 274.42889404 C-163.43449374 269.38822381 -165.14798042 264.33053106 -166.765625 259.2265625 C-167.11131531 258.14796967 -167.45700562 257.06937683 -167.81317139 255.95809937 C-168.53490005 253.70188472 -169.25405409 251.44484496 -169.97070312 249.18701172 C-171.06706564 245.73562721 -172.17357988 242.28761378 -173.28125 238.83984375 C-173.98497738 236.63560889 -174.68812314 234.43118824 -175.390625 232.2265625 C-175.71975891 231.2014859 -176.04889282 230.1764093 -176.38800049 229.12026978 C-177.85790274 224.47132301 -179.20971896 219.98325062 -179.8125 215.125 C-180.4725 215.125 -181.1325 215.125 -181.8125 215.125 C-182.21782959 216.21530518 -182.21782959 216.21530518 -182.63134766 217.32763672 C-184.59233116 221.97190068 -187.44283341 226.03627178 -190.1875 230.25 C-190.765 231.15621094 -191.3425 232.06242188 -191.9375 232.99609375 C-192.78441406 234.30126953 -192.78441406 234.30126953 -193.6484375 235.6328125 C-194.15938965 236.42316895 -194.6703418 237.21352539 -195.19677734 238.02783203 C-196.98514755 240.34909224 -198.28006106 241.63161598 -200.8125 243.125 C-203.3752258 243.41976074 -205.69432672 243.54557682 -208.25561523 243.52905273 C-208.99919281 243.53591599 -209.74277039 243.54277924 -210.50888062 243.54985046 C-212.96314675 243.56812895 -215.41677425 243.56427957 -217.87109375 243.55859375 C-219.57975981 243.56315519 -221.28842402 243.56846065 -222.99708557 243.57447815 C-226.57731583 243.58341138 -230.15732305 243.58098392 -233.73754883 243.57104492 C-238.3221337 243.55955703 -242.90594814 243.57976246 -247.49043179 243.60896206 C-251.01895526 243.62732248 -254.54729408 243.62703191 -258.07585335 243.62132454 C-259.76592146 243.62117129 -261.45600206 243.62721843 -263.1460247 243.63961601 C-265.51116909 243.65452116 -267.87488992 243.64385388 -270.23999023 243.62670898 C-270.93573654 243.63637695 -271.63148285 243.64604492 -272.34831238 243.65600586 C-277.08856336 243.58417607 -279.47862134 242.46593995 -282.8125 239.125 C-284.55726571 235.63546858 -284.38739133 231.93205813 -283.8125 228.125 C-282.25434895 225.10841957 -280.29853971 222.67596648 -277.01557922 221.45877075 C-274.22405568 221.03584955 -271.63426988 221.14209231 -268.81323242 221.28466797 C-262.74732014 221.55625906 -256.68909551 221.73561582 -250.61861706 221.84339714 C-246.95404763 221.9139189 -243.30046287 222.02549035 -239.64086914 222.23242188 C-223.46489624 223.57444669 -223.46489624 223.57444669 -209.04187012 217.92306519 C-204.31066716 212.52722819 -201.10335449 206.50138272 -198.15557861 199.99461365 C-196.17220412 195.7569477 -193.69435635 191.87896096 -191.1875 187.9375 C-190.81107864 187.30139801 -190.43465729 186.66529602 -190.04682922 186.00991821 C-187.15941318 181.21599205 -184.27641386 177.84364154 -178.8125 176.25 C-175.41765287 176.10854804 -173.74769164 176.42567853 -170.8125 178.125 C-167.04625448 182.11427459 -165.52256438 186.05936444 -163.90234375 191.171875 C-163.64876602 191.94251282 -163.39518829 192.71315063 -163.13392639 193.50714111 C-162.3293016 195.95996571 -161.53940784 198.41724106 -160.75 200.875 C-160.21647387 202.51073634 -159.68197748 204.14615654 -159.14648438 205.78125 C-158.1553383 208.81156057 -157.17012137 211.84366169 -156.19116211 214.87792969 C-155.21841483 217.88740322 -154.22796682 220.89046089 -153.22633362 223.89044189 C-152.96033639 224.68743122 -152.69433916 225.48442055 -152.42028141 226.30556107 C-152.21971354 226.90597591 -152.01914568 227.50639076 -151.8125 228.125 C-151.583349 226.9275415 -151.354198 225.73008301 -151.11810303 224.49633789 C-148.95371485 213.19442781 -146.77685854 201.89498113 -144.58787155 190.59780884 C-143.46297486 184.79018162 -142.34243965 178.98178428 -141.23193359 173.17138672 C-140.15944522 167.56078282 -139.07542028 161.95251948 -137.9834671 156.34567261 C-137.56953229 154.20953198 -137.15971299 152.07258948 -136.75414276 149.93484497 C-136.18398873 146.93348321 -135.59907312 143.93534401 -135.01074219 140.9375 C-134.84745926 140.05924057 -134.68417633 139.18098114 -134.51594543 138.27610779 C-133.44784783 132.93347322 -132.11100271 127.5670942 -128.8125 123.125 C-125.01679927 120.73063 -121.19158432 120.34181761 -116.8125 121.125 C-113.23370409 123.11321995 -111.37525091 124.28523981 -110.17181587 128.21954155 C-110.03029028 129.00922388 -109.88876469 129.79890621 -109.74295044 130.61251831 C-109.58328922 131.50291683 -109.42362801 132.39331535 -109.25912857 133.31069565 C-108.51282563 138.01331381 -107.88376008 142.72433586 -107.30029297 147.44970703 C-107.16345093 148.53381363 -107.02660889 149.61792023 -106.88562012 150.73487854 C-106.4385234 154.28376571 -105.99656706 157.83327229 -105.5546875 161.3828125 C-105.24398084 163.85720755 -104.93295101 166.33156205 -104.62161255 168.80587769 C-103.80628613 175.29252719 -102.99533021 181.77971575 -102.18530273 188.26702881 C-101.35705554 194.89715169 -100.52385376 201.52665348 -99.69140625 208.15625 C-98.06104771 221.14532688 -96.4351673 234.13496016 -94.8125 247.125 C-93.35391482 244.20782964 -93.3637674 241.41024071 -93.06031799 238.16297913 C-92.99145431 237.43807563 -92.92259063 236.71317213 -92.85164016 235.96630186 C-92.62067512 233.52483309 -92.395459 231.08286736 -92.17016602 228.64086914 C-92.00613588 226.8948638 -91.84173913 225.14889287 -91.67700195 223.4029541 C-91.32224936 219.63540777 -90.96998056 215.86764018 -90.61956978 212.09968758 C-90.06475978 206.13540387 -89.5037024 200.17171818 -88.94163513 194.20811462 C-87.54569979 179.38642424 -86.15837263 164.56392938 -84.77209473 149.74133301 C-83.69623325 138.23905401 -82.61812445 126.73699444 -81.53356689 115.23553175 C-80.97550317 109.31470006 -80.42194684 103.39346988 -79.8718549 97.47189248 C-79.52733462 93.77379411 -79.17882109 90.0760798 -78.82924652 86.37845612 C-78.66875788 84.6723092 -78.50989272 82.96600861 -78.3528347 81.25954247 C-75.99351795 55.65292647 -75.99351795 55.65292647 -72.25 51.9375 C-67.92434395 49.65669954 -64.60373892 49.02000947 -59.8125 50.125 C-55.97683837 52.98134377 -54.26566839 55.64286927 -52.8125 60.125 C-52.4610625 62.90172621 -52.19640615 65.6162197 -52.00926208 68.40361023 C-51.94700552 69.23387138 -51.88474895 70.06413252 -51.82060581 70.9195531 C-51.6141409 73.69936059 -51.41928716 76.47985911 -51.22436523 79.26049805 C-51.07861279 81.25488842 -50.93214105 83.24922634 -50.78500366 85.24351501 C-50.38735369 90.66056745 -49.99968905 96.07829428 -49.6137073 101.49618888 C-49.20775166 107.1694282 -48.79238397 112.84197789 -48.37794495 118.51460266 C-47.5936598 129.26852053 -46.81742651 140.02300326 -46.04426485 150.77772599 C-44.91060953 166.54191546 -43.76489592 182.3052294 -42.61919498 198.06854725 C-42.44990668 200.39797751 -42.28062278 202.72740808 -42.11134338 205.05683899 C-42.02864498 206.1946476 -41.94594657 207.33245621 -41.86074215 208.50474387 C-41.37040136 215.25483991 -40.88235753 222.00509713 -40.39639461 228.75550973 C-40.09333135 232.96355718 -39.7892574 237.17153128 -39.48504257 241.37949562 C-39.3446728 243.32484554 -39.20478312 245.27023016 -39.06542015 247.21565247 C-38.87444826 249.88101733 -38.6817826 252.54625494 -38.48875427 255.21147156 C-38.43466713 255.972686 -38.38057999 256.73390044 -38.32485384 257.51818198 C-37.92068492 263.06461399 -37.38793372 268.5938429 -36.8125 274.125 C-36.77766768 273.56481011 -36.74283535 273.00462023 -36.70694751 272.42745489 C-34.64209245 239.22470354 -32.56396354 206.02281278 -30.46859739 172.82197341 C-30.21700526 168.83534189 -29.96552402 164.84870339 -29.71411133 160.86206055 C-29.63903105 159.67155951 -29.63903105 159.67155951 -29.562434 158.45700795 C-28.75228173 145.60672043 -27.95111406 132.75588773 -27.15326645 119.90483104 C-26.33437687 106.71808207 -25.5058324 93.53196534 -24.66832572 80.34638554 C-24.15186038 72.21042337 -23.64292798 64.07406186 -23.14362691 55.937028 C-22.75992946 49.69716966 -22.36280036 43.45823229 -21.96064758 37.21953773 C-21.79779691 34.66040484 -21.63931169 32.10098988 -21.48549843 29.54129791 C-21.27495486 26.04839043 -21.04877328 22.55683443 -20.81864929 19.06517029 C-20.7612417 18.05056793 -20.7038341 17.03596557 -20.64468688 15.99061769 C-20.20580116 9.65873341 -19.33808944 4.41924709 -15.375 -0.75 C-10.5289872 -4.23912922 -4.76377618 -3.17585079 0 0 Z " fill="#000000" transform="translate(283.8125,28.875)"/>
</svg>
